<?xml version="1.0" standalone="no"?>
<!DOCTYPE svg PUBLIC "-//W3C//DTD SVG 20010904//EN"
 "http://www.w3.org/TR/2001/REC-SVG-20010904/DTD/svg10.dtd">
<svg version="1.0" xmlns="http://www.w3.org/2000/svg"
 width="360.000000pt" height="360.000000pt" viewBox="0 0 360.000000 360.000000"
 preserveAspectRatio="xMidYMid meet">

<g transform="translate(0.000000,360.000000) scale(0.100000,-0.100000)"
fill="#000000" stroke="none">
<path d="M2198 3409 c-25 -14 -24 -65 1 -79 31 -16 49 -12 67 15 15 23 15 27
0 50 -17 26 -40 31 -68 14z"/>
<path d="M2000 3205 c-26 -32 13 -81 48 -59 34 22 22 74 -18 74 -10 0 -23 -7
-30 -15z"/>
<path d="M2432 3168 c-29 -29 -2 -72 40 -66 42 6 32 78 -11 78 -9 0 -22 -5
-29 -12z"/>
<path d="M2252 3094 c-28 -19 -30 -74 -4 -97 42 -39 112 -9 112 46 0 55 -61
84 -108 51z"/>
<path d="M1988 2875 c-124 -46 -195 -189 -154 -312 78 -235 404 -235 482 0 64
193 -135 383 -328 312z"/>
<path d="M1067 2613 l5 -108 -41 -42 -41 -41 0 -244 c0 -176 3 -247 12 -256
14 -14 185 -16 207 -3 8 5 16 34 20 69 l6 60 170 -64 c94 -35 184 -64 202 -64
17 0 68 16 113 35 47 20 80 30 78 23 -3 -7 -39 -110 -82 -228 l-78 -215 -270
-180 c-149 -99 -278 -191 -287 -204 -15 -24 -254 -682 -249 -686 10 -7 249
-87 252 -84 1 2 49 136 106 297 57 161 108 299 114 306 22 28 409 278 401 260
-4 -11 -35 -93 -68 -184 l-62 -165 -3 -358 -3 -357 130 0 129 0 4 78 c2 42 5
189 6 325 l3 249 103 286 c57 158 152 422 211 587 60 165 109 301 111 303 6 9
203 -100 208 -115 3 -10 23 -114 45 -232 22 -118 42 -215 43 -217 3 -2 201 36
206 41 6 5 -99 531 -110 554 -9 16 -88 61 -270 152 -330 165 -293 162 -576 38
l-207 -91 -185 70 -185 69 -6 72 c-5 66 -8 74 -44 110 l-38 40 -1 110 0 111
-43 0 -42 0 6 -107z"/>
</g>
</svg>
